<svg height="512pt" viewBox="0 0 512 512.00103" width="512pt" xmlns="http://www.w3.org/2000/svg"><path d="m148.855469 115.636719c5.230469-4.472657 9.785156-9.917969 13.351562-16.277344 15.515625-27.679687 6.511719-63.191406-20.351562-80.085937-28.902344-18.175782-66.828125-8.652344-83.839844 20.558593-16.800781 28.847657-6.21875 65.953125 22.695313 82.648438l228.890624 132.140625c23.734376 13.703125 53.175782 12.824218 76.050782-2.277344zm-56.3125-55.605469c5.523437-9.566406 17.753906-12.84375 27.320312-7.320312 9.566407 5.523437 12.84375 17.753906 7.320313 27.320312-5.523438 9.5625-17.753906 12.839844-27.320313 7.320312-9.566406-5.523437-12.84375-17.753906-7.320312-27.320312zm0 0" fill="#8397aa"/><path d="m385.652344 71.996094c-22.875-15.101563-52.316406-15.984375-76.050782-2.28125l-228.894531 132.144531c-28.910156 16.691406-39.492187 53.796875-22.691406 82.648437 17.011719 29.207032 54.9375 38.734376 83.839844 20.558594 26.863281-16.894531 35.867187-52.40625 20.347656-80.085937-3.566406-6.363281-8.121094-11.804688-13.347656-16.277344zm-285.789063 164.992187c9.5625-5.523437 21.796875-2.246093 27.320313 7.320313 5.523437 9.5625 2.242187 21.796875-7.320313 27.320312-9.566406 5.519532-21.800781 2.242188-27.324219-7.320312-5.523437-9.566406-2.242187-21.796875 7.324219-27.320313zm0 0" fill="#c8e7f9"/><path d="m502 151.015625h-10c-5.523438 0-10 4.476563-10 10s4.476562 10 10 10c0 5.523437 4.476562 10 10 10s10-4.476563 10-10v-10c0-5.523437-4.476562-10-10-10zm0 0"/><path d="m452.671875 151.015625c-5.53125 0-10 4.480469-10 10s4.46875 10 10 10c5.519531 0 10-4.480469 10-10s-4.480469-10-10-10zm0 0"/><path d="m20 151.015625h-10c-5.523438 0-10 4.476563-10 10v10c0 5.523437 4.476562 10 10 10s10-4.476563 10-10c5.523438 0 10-4.476563 10-10s-4.476562-10-10-10zm0 0"/><path d="m20 216.875c0-5.53125-4.480469-10-10-10s-10 4.46875-10 10c0 5.519531 4.480469 10 10 10s10-4.480469 10-10zm0 0"/><path d="m10 295.648438c5.511719 0 10-4.476563 10-10v-22.925782c0-5.511718-4.488281-9.992187-10-9.992187-5.507812 0-10 4.480469-10 9.992187v22.925782c0 5.523437 4.492188 10 10 10zm0 0"/><path d="m10 410.296875c5.511719 0 10-4.492187 10-10v-22.929687c0-5.519532-4.488281-10-10-10-5.507812 0-10 4.480468-10 10v22.929687c0 5.507813 4.492188 10 10 10zm0 0"/><path d="m10 456.140625c5.511719 0 10-4.480469 10-10 0-5.507813-4.488281-10-10-10-5.507812 0-10 4.492187-10 10 0 5.519531 4.492188 10 10 10zm0 0"/><path d="m10 341.507812c5.511719 0 10-4.488281 10-10 0-5.511718-4.488281-10-10-10-5.507812 0-10 4.488282-10 10 0 5.511719 4.492188 10 10 10zm0 0"/><path d="m20 492c0-5.523438-4.476562-10-10-10s-10 4.476562-10 10v10c0 5.523438 4.476562 10 10 10h10c5.523438 0 10-4.476562 10-10s-4.476562-10-10-10zm0 0"/><path d="m59.332031 492c-5.523437 0-10 4.480469-10 10s4.476563 10 10 10c5.527344 0 10-4.480469 10-10s-4.472656-10-10-10zm0 0"/><path d="m157.671875 492c-5.519531 0-10 4.492188-10 10 0 5.511719 4.480469 10 10 10 5.507813 0 10-4.488281 10-10s-4.492187-10-10-10zm0 0"/><path d="m118.332031 492h-19.660156c-5.519531 0-10 4.492188-10 10 0 5.511719 4.480469 10 10 10h19.660156c5.519531 0 10-4.488281 10-10s-4.480469-10-10-10zm0 0"/><path d="m452.671875 492c-5.519531 0-10 4.492188-10 10 0 5.511719 4.480469 10 10 10 5.507813 0 10-4.488281 10-10s-4.492187-10-10-10zm0 0"/><path d="m354.332031 492c-5.511719 0-10 4.492188-10 10 0 5.511719 4.488281 10 10 10 5.519531 0 10-4.488281 10-10s-4.480469-10-10-10zm0 0"/><path d="m315 492h-19.667969c-5.511719 0-10 4.492188-10 10 0 5.511719 4.488281 10 10 10h19.667969c5.511719 0 10-4.488281 10-10s-4.488281-10-10-10zm0 0"/><path d="m413.332031 492h-19.660156c-5.519531 0-10 4.492188-10 10 0 5.511719 4.480469 10 10 10h19.660156c5.519531 0 10-4.488281 10-10s-4.480469-10-10-10zm0 0"/><path d="m216.671875 492h-19.671875c-5.507812 0-10 4.492188-10 10 0 5.511719 4.492188 10 10 10h19.671875c5.507813 0 10-4.488281 10-10s-4.492187-10-10-10zm0 0"/><path d="m256 492c-5.507812 0-10 4.492188-10 10 0 5.511719 4.492188 10 10 10 5.511719 0 10-4.488281 10-10s-4.488281-10-10-10zm0 0"/><path d="m502 482c-5.523438 0-10 4.476562-10 10-5.523438 0-10 4.476562-10 10s4.476562 10 10 10h10c5.523438 0 10-4.476562 10-10v-10c0-5.523438-4.476562-10-10-10zm0 0"/><path d="m502 436.144531c-5.519531 0-10 4.476563-10 10 0 5.519531 4.480469 10 10 10s10-4.480469 10-10c0-5.523437-4.480469-10-10-10zm0 0"/><path d="m502 367.367188c-5.507812 0-10 4.480468-10 10v22.929687c0 5.507813 4.492188 10 10 10 5.511719 0 10-4.492187 10-10v-22.929687c0-5.519532-4.488281-10-10-10zm0 0"/><path d="m502 252.722656c-5.507812 0-10 4.488282-10 10v22.929688c0 5.519531 4.492188 10 10 10 5.511719 0 10-4.480469 10-10v-22.929688c0-5.511718-4.488281-10-10-10zm0 0"/><path d="m502 321.507812c-5.507812 0-10 4.492188-10 10 0 5.511719 4.492188 10 10 10 5.511719 0 10-4.488281 10-10 0-5.511718-4.488281-10-10-10zm0 0"/><path d="m502 206.875c-5.507812 0-10 4.480469-10 10 0 5.507812 4.492188 10 10 10 5.511719 0 10-4.492188 10-10 0-5.519531-4.488281-10-10-10zm0 0"/><path d="m124.863281 44.050781c-6.941406-4.007812-15.027343-5.070312-22.765625-2.996093-7.742187 2.074218-14.210937 7.039062-18.21875 13.976562-4.003906 6.941406-5.070312 15.023438-2.996094 22.765625 2.074219 7.738281 7.039063 14.207031 13.980469 18.214844 4.710938 2.71875 9.859375 4.011719 14.949219 4.011719 10.375 0 20.480469-5.382813 26.03125-14.996094 8.269531-14.324219 3.34375-32.707032-10.980469-40.976563zm-6.339843 30.980469c-2.757813 4.773438-8.886719 6.417969-13.660157 3.660156-2.316406-1.335937-3.96875-3.492187-4.660156-6.074218-.691406-2.578126-.335937-5.273438 1-7.585938 1.847656-3.207031 5.214844-5 8.675781-5 1.695313 0 3.414063.433594 4.984375 1.335938 4.773438 2.761718 6.417969 8.886718 3.660157 13.664062zm0 0"/><path d="m164.867188 211.007812 24.589843-14.199218 115.144531 66.472656c12.855469 7.425781 27.046876 11.113281 41.207032 11.113281 15.789062 0 31.539062-4.585937 45.351562-13.707031 2.894532-1.910156 4.589844-5.179688 4.488282-8.644531-.105469-3.464844-1.996094-6.625-4.996094-8.359375l-128.964844-74.453125c2.601562-1.808594 4.3125-4.816407 4.3125-8.214844 0-2.640625-1.039062-5.039063-2.71875-6.828125l127.371094-73.53125c3-1.734375 4.890625-4.898438 4.996094-8.359375.101562-3.464844-1.59375-6.738281-4.488282-8.648437-26.203125-17.296876-59.371094-18.292969-86.558594-2.59375l-115.144531 66.476562-24.589843-14.199219c2.242187-2.851562 4.269531-5.886719 6.0625-9.085937 8.765624-15.636719 11.136718-33.902344 6.683593-51.4375-4.453125-17.542969-15.261719-32.460938-30.433593-42-16.242188-10.214844-35.429688-13.324219-54.019532-8.753906-18.601562 4.574218-34.148437 16.199218-43.785156 32.746093-9.316406 15.996094-11.804688 34.761719-7 52.828125 4.917969 18.488282 16.753906 33.9375 33.332031 43.507813l34.433594 19.878906h-11.46875c-5.519531 0-10 4.492187-10 10 0 5.511719 4.480469 10 10 10h15.460937l-38.425781 22.183594c-16.578125 9.570312-28.414062 25.023437-33.328125 43.511719-4.804687 18.066406-2.320312 36.828124 6.996094 52.828124 9.636719 16.542969 25.1875 28.171876 43.785156 32.742188 5.597656 1.375 11.246094 2.058594 16.851563 2.058594 13.019531 0 25.8125-3.667969 37.167969-10.808594 15.171874-9.542969 25.980468-24.460938 30.4375-42.003906 4.453124-17.535156 2.078124-35.800782-6.6875-51.4375-1.792969-3.195313-3.820313-6.230469-6.0625-9.082032zm149.734374 34.957032-105.144531-60.703125 20-11.546875 134.820313 77.835937c-16.359375 5.121094-34.285156 3.300781-49.675782-5.585937zm-252.894531-163.476563c-3.429687-12.890625-1.671875-26.253906 4.953125-37.625 6.878906-11.816406 17.988282-20.121093 31.273438-23.386719 3.996094-.980468 8.027344-1.46875 12.03125-1.46875 9.304687 0 18.449218 2.625 26.566406 7.730469 22.160156 13.933594 29.765625 43.871094 16.953125 66.730469-2.898437 5.167969-6.640625 9.730469-11.125 13.566406-2.46875 2.109375-3.761719 5.285156-3.460937 8.519532.296874 3.230468 2.144531 6.117187 4.957031 7.742187l25.601562 14.777344-20 11.546875-63.75-36.800782c-11.9375-6.894531-20.460937-18.019531-24-31.332031zm80.648438 133.816407c4.488281 3.832031 8.230469 8.398437 11.125 13.5625 12.816406 22.859374 5.210937 52.796874-16.949219 66.734374-11.613281 7.300782-25.320312 9.523438-38.597656 6.257813-13.285156-3.265625-24.394532-11.570313-31.277344-23.386719-6.621094-11.371094-8.378906-24.734375-4.953125-37.625 3.539063-13.308594 12.0625-24.4375 24.003906-31.328125l228.894531-132.144531c9.734376-5.621094 20.476563-8.414062 31.199219-8.414062 6.234375 0 12.460938.945312 18.476563 2.828124l-220.421875 127.253907c-2.8125 1.625-4.660157 4.511719-4.957031 7.742187-.300782 3.234375.992187 6.40625 3.457031 8.519532zm0 0"/><path d="m94.863281 228.328125c-6.941406 4.007813-11.90625 10.476563-13.980469 18.214844-2.074218 7.738281-1.007812 15.824219 3 22.765625 5.546876 9.613281 15.652344 14.992187 26.03125 14.992187 5.085938 0 10.234376-1.292969 14.949219-4.015625 14.324219-8.269531 19.25-26.652344 10.980469-40.976562-8.269531-14.324219-26.65625-19.25-40.980469-10.980469zm24.660157 28.566406c-.691407 2.582031-2.347657 4.738281-4.660157 6.074219-4.773437 2.753906-10.902343 1.113281-13.660156-3.660156-1.335937-2.316406-1.691406-5.007813-1-7.589844.691406-2.578125 2.347656-4.734375 4.660156-6.070312 1.539063-.890626 3.25-1.34375 4.984375-1.34375.867188 0 1.742188.113281 2.601563.34375 2.582031.691406 4.738281 2.347656 6.074219 4.660156 1.335937 2.3125 1.6875 5.007812 1 7.585937zm0 0"/><path d="m344.332031 161.015625c0 5.511719 4.488281 10 10 10 5.519531 0 10-4.488281 10-10 0-5.507813-4.480469-10-10-10-5.511719 0-10 4.492187-10 10zm0 0"/><path d="m295.332031 151.015625c-5.511719 0-10 4.492187-10 10 0 5.511719 4.488281 10 10 10h19.667969c5.511719 0 10-4.488281 10-10 0-5.507813-4.488281-10-10-10zm0 0"/><path d="m69.332031 161.015625c0-5.507813-4.480469-10-10-10-5.511719 0-10 4.492187-10 10 0 5.511719 4.488281 10 10 10 5.519531 0 10-4.488281 10-10zm0 0"/><path d="m413.332031 151.015625h-19.660156c-5.519531 0-10 4.492187-10 10 0 5.511719 4.480469 10 10 10h19.660156c5.519531 0 10-4.488281 10-10 0-5.507813-4.480469-10-10-10zm0 0"/></svg>